<svg version="1.1" id="Layer_1" xmlns="http://www.w3.org/2000/svg" xmlns:xlink="http://www.w3.org/1999/xlink" x="0px" y="0px"
	 width="100%" viewBox="0 0 633 644" enable-background="new 0 0 633 644" xml:space="preserve">
<path fill="#010101" opacity="1.000000" stroke="none" 
	d="
M297.683960,1.224284 
	C306.687561,1.000000 315.375122,1.000000 324.531342,1.000000 
	C326.530487,2.003788 328.249603,1.531178 329.850708,1.468631 
	C373.441345,-0.234218 413.672638,12.327252 452.547394,30.465778 
	C476.362854,41.577831 498.276703,55.769394 518.462891,72.574783 
	C550.035889,98.860023 575.860535,129.880524 595.433777,166.093094 
	C614.495667,201.359573 626.480347,238.930328 632.159546,278.502197 
	C633.618225,288.665985 633.639160,299.048828 633.775146,309.681274 
	C634.000000,318.020905 634.000000,326.041809 634.000000,334.531372 
	C632.657166,341.379944 633.399780,347.879974 633.166199,354.301544 
	C632.372375,376.126831 627.593872,397.190643 621.805908,418.053467 
	C614.016846,446.129242 602.535645,472.614716 586.905945,497.308289 
	C569.389404,524.982910 548.043152,549.274536 523.109314,570.395874 
	C497.792023,591.842102 469.960724,609.347168 439.293427,622.166748 
	C415.849091,631.967041 391.621124,639.196350 366.485840,643.035889 
	C356.635895,644.540527 346.614136,644.578857 336.317749,644.775391 
	C325.645782,645.000000 315.291534,645.000000 304.468658,645.000000 
	C296.095062,644.033569 288.127319,644.442871 280.196625,643.875916 
	C265.820709,642.848022 251.897415,639.533325 238.056168,635.855774 
	C188.253418,622.623474 145.185242,596.855896 106.287209,563.805054 
	C67.693253,531.012573 39.888535,490.392944 21.109808,443.431030 
	C12.334675,421.486145 6.733418,398.721527 3.010371,375.489380 
	C1.488275,365.991394 1.456713,356.277283 1.223707,346.313171 
	C1.000000,332.312439 1.000000,318.624878 1.000000,304.468658 
	C1.947992,296.599335 1.768188,289.136322 2.208633,281.706665 
	C2.981784,268.664795 5.929665,256.008942 8.759534,243.335205 
	C14.231554,218.828476 22.478931,195.269608 33.808197,172.860291 
	C49.986122,140.860321 71.195969,112.758736 98.038879,88.761024 
	C117.357864,71.489754 137.172943,54.994446 159.751404,42.191387 
	C185.236115,27.740351 212.160156,16.764439 240.736603,9.919688 
	C256.622253,6.114688 272.465912,2.313273 288.890533,1.678622 
	C291.717041,1.569405 294.547791,1.688643 297.683960,1.224284 
z"/>
<path fill="#FDE9B9" opacity="1.000000" stroke="none" 
	d="
M56.766087,221.625549 
	C56.553211,220.989105 56.555805,220.688614 56.863525,220.207245 
	C58.809151,218.429047 58.886398,216.041321 59.739563,213.651855 
	C59.711884,213.280838 59.692226,213.131180 59.753124,213.086594 
	C61.372875,211.307678 61.675072,208.993881 62.611134,206.597275 
	C62.538437,205.901871 62.598640,205.609283 62.964748,205.194519 
	C67.175980,199.383575 69.787666,192.911911 73.433968,187.014679 
	C78.632416,178.607147 82.852158,169.536987 90.860046,163.174881 
	C92.282089,162.045090 93.545776,160.446365 93.784843,158.643295 
	C94.565071,152.758896 97.860046,148.306290 101.574860,144.039658 
	C102.459961,143.023071 103.034363,141.834244 103.808205,140.340027 
	C104.191238,139.758194 104.346977,139.460480 104.749985,139.088470 
	C105.850822,138.126175 106.754944,137.286362 107.688408,136.065887 
	C107.830246,135.792450 107.918251,135.883408 107.856956,135.867676 
	C108.932724,135.236816 109.723160,134.251389 110.600510,132.980164 
	C110.666565,132.672073 110.975945,132.924957 110.812820,132.809723 
	C111.078590,132.755356 111.430725,132.625259 111.678909,131.968781 
	C111.663635,131.662964 111.947945,131.966034 111.796318,131.823944 
	C112.093323,131.736633 112.461113,131.596741 112.634163,130.925507 
	C112.533890,130.621658 112.788132,130.859146 112.678314,130.724243 
	C113.457840,130.748520 113.439819,130.034958 113.825233,129.286621 
	C114.200035,128.780960 114.361641,128.493088 114.756378,128.106094 
	C115.203987,127.766968 115.432045,127.540642 115.827866,127.142715 
	C115.982033,126.957413 116.000870,127.001648 115.978729,126.992294 
	C116.220688,126.790810 116.455269,126.567650 116.828949,126.137947 
	C117.031548,125.614822 117.192177,125.341690 117.711456,125.067619 
	C118.188141,124.772888 118.431015,124.551628 118.822891,124.133530 
	C118.973679,123.938660 118.994827,123.997520 118.965820,123.985825 
	C119.209015,123.789314 119.454063,123.573647 119.824356,123.134888 
	C119.976753,122.942650 119.998268,122.997902 119.970306,122.988045 
	C120.218781,122.793037 120.458984,122.569038 120.825867,122.120300 
	C121.032700,121.591568 121.199951,121.326530 121.720970,121.067665 
	C122.190216,120.778893 122.424477,120.556976 122.832932,120.167084 
	C123.969818,119.025070 124.927979,118.046265 126.157570,116.952034 
	C126.904060,116.826477 127.315079,116.663544 127.668739,115.979050 
	C127.685371,115.634064 127.776115,115.794334 127.702805,115.738602 
	C128.384399,115.714684 128.457504,115.124504 128.825150,114.427574 
	C129.039627,114.247787 129.177353,113.926811 129.348373,113.891441 
	C129.960754,113.818649 130.334579,113.639946 130.772858,113.026047 
	C149.690369,94.246216 171.519623,80.122742 194.835617,68.131248 
	C222.578430,53.863029 251.984009,44.809975 282.783295,40.163158 
	C284.745056,39.867172 286.767761,39.906528 288.762085,39.907360 
	C295.551544,39.910183 298.530853,42.748093 298.559723,49.578587 
	C298.637115,67.887115 298.620789,86.196144 298.603241,104.504936 
	C298.590027,118.319252 298.395844,132.134506 298.508148,145.947495 
	C298.605896,157.969666 307.208069,166.391266 318.600952,165.983047 
	C326.777405,165.690079 333.468414,159.088333 335.471100,149.229172 
	C337.251312,147.820251 336.461914,146.175156 336.463379,144.812439 
	C336.498474,111.870529 336.539551,78.928520 336.384338,45.508362 
	C337.978302,39.703678 342.279663,39.336201 346.783051,39.679218 
	C360.097412,40.693348 373.098175,43.397453 385.959656,46.942978 
	C452.864899,65.386719 505.430389,104.188309 545.460510,160.244949 
	C571.173279,196.252075 585.815979,236.849350 592.189026,280.512238 
	C592.957214,285.775208 593.698303,291.048340 594.221741,296.339508 
	C595.088684,305.103363 592.652222,307.889648 583.679504,307.946594 
	C564.020142,308.071350 544.359497,307.995544 524.699341,308.001038 
	C513.369812,308.004211 502.039917,307.949829 490.710876,308.025238 
	C480.160004,308.095490 472.698608,315.511719 472.638977,325.823517 
	C472.578949,336.204803 480.796478,344.958923 490.971558,344.989136 
	C519.961670,345.075256 548.952271,345.011017 577.942566,345.059326 
	C580.760010,345.064056 583.597351,345.289581 586.389526,345.673859 
	C592.239563,346.479034 594.445068,349.452698 593.859680,355.212982 
	C590.567749,387.608978 581.743286,418.443878 568.109009,447.988342 
	C543.264526,501.824402 503.789490,542.083862 453.058563,571.735474 
	C420.205902,590.937500 384.617004,602.440002 346.932709,607.514771 
	C342.380707,608.127747 338.174133,607.870911 336.218689,602.327637 
	C336.764557,600.007874 336.491547,597.999634 336.489899,596.014282 
	C336.463287,564.230164 336.598907,532.445923 336.040192,500.375122 
	C334.345581,495.596161 332.907837,491.130707 329.288635,487.896729 
	C324.217377,483.365295 318.325806,481.485352 311.742950,483.833862 
	C304.598938,486.382599 299.955719,491.487366 299.125275,499.146423 
	C297.522614,513.927917 298.771698,528.780640 298.552185,543.601013 
	C298.288147,561.428162 298.490051,579.261963 298.456207,597.092834 
	C298.440491,605.358459 295.678680,608.163696 287.478302,607.156921 
	C265.582458,604.468750 244.397995,598.774231 223.896637,590.716125 
	C182.156006,574.309875 144.629944,551.123779 113.742386,518.423767 
	C77.118866,479.651154 53.967026,433.552124 43.194939,381.334686 
	C41.453056,372.890930 40.644890,364.218414 39.941277,355.607849 
	C39.364292,348.546844 42.514874,345.459930 49.543781,345.367523 
	C63.037914,345.190033 76.533424,345.080505 90.028679,345.034027 
	C107.014229,344.975525 124.000130,345.023499 140.985825,344.995697 
	C149.455292,344.981842 155.132935,340.531494 158.529800,333.177612 
	C161.599030,326.533020 160.298080,320.176392 155.976547,314.411346 
	C152.522598,309.803650 147.885590,307.926086 142.109390,307.946136 
	C111.279190,308.053009 80.448448,308.006561 49.617893,308.012024 
	C41.494728,308.013458 39.530277,306.083374 39.785187,297.989258 
	C40.503296,275.187103 45.591694,253.237320 52.993271,231.368454 
	C53.343037,230.723282 53.551399,230.426407 53.800110,229.856857 
	C53.847290,229.588989 53.760998,229.269592 53.868168,229.143585 
	C55.171719,227.394760 55.488220,225.512161 55.779182,223.258713 
	C55.973099,222.952652 56.008320,222.981934 55.986115,222.987503 
	C56.319164,222.706284 56.605167,222.361984 56.766087,221.625549 
z"/>
<path fill="#E0DEB9" opacity="1.000000" stroke="none" 
	d="
M103.725082,140.180450 
	C104.407516,145.381577 98.937561,147.476196 97.460518,151.850693 
	C97.008827,153.188461 95.790535,154.348999 96.000961,155.921051 
	C96.396042,158.872711 95.051216,161.359451 93.135506,163.061462 
	C89.213120,166.546326 85.780655,170.478790 82.483192,174.465729 
	C79.272446,178.347809 77.852585,183.412094 75.031090,187.672241 
	C71.939117,192.340790 68.760117,197.028519 66.718613,202.337677 
	C66.240349,203.581406 65.151833,204.470474 63.480255,204.986328 
	C68.748512,190.019165 77.535889,176.763229 86.354614,163.537598 
	C91.687531,155.539703 97.247398,147.696152 103.725082,140.180450 
z"/>
<path fill="#FEF3CB" opacity="1.000000" stroke="none" 
	d="
M336.121277,45.470169 
	C337.248779,46.358196 336.996368,47.893539 336.996674,49.369522 
	C337.003662,80.939018 337.002838,112.508522 336.981995,144.078003 
	C336.981049,145.542572 337.310486,147.087021 336.004395,148.673920 
	C335.762543,114.587532 335.857208,80.248856 336.121277,45.470169 
z"/>
<path fill="#FFF4CB" opacity="1.000000" stroke="none" 
	d="
M335.565155,500.546265 
	C337.277649,501.019958 336.987579,502.620789 336.987823,504.080658 
	C336.992706,535.997986 336.984833,567.915344 336.964539,599.832703 
	C336.964233,600.318298 336.776611,600.803833 336.449097,601.631104 
	C336.053375,598.837402 335.749084,595.702454 335.737518,592.566528 
	C335.624786,562.045837 335.561066,531.524963 335.565155,500.546265 
z"/>
<path fill="#E0DEB9" opacity="1.000000" stroke="none" 
	d="
M59.435356,213.529083 
	C59.768818,215.680344 61.013821,218.428955 57.393642,219.942993 
	C57.725594,217.942444 58.442211,215.859879 59.435356,213.529083 
z"/>
<path fill="#E0DEB9" opacity="1.000000" stroke="none" 
	d="
M62.341911,206.475739 
	C63.244701,208.815338 62.507336,210.959183 60.152481,212.862854 
	C60.567398,210.937988 61.320766,208.833969 62.341911,206.475739 
z"/>
<path fill="#E0DEB9" opacity="1.000000" stroke="none" 
	d="
M55.748188,223.230225 
	C55.896454,224.934387 56.502747,227.081085 54.289440,228.820068 
	C54.491318,227.180984 55.007298,225.344391 55.748188,223.230225 
z"/>
<path fill="#E0DEB9" opacity="1.000000" stroke="none" 
	d="
M110.375862,132.795517 
	C110.973701,134.414658 110.328598,135.513657 108.162888,135.842545 
	C108.558830,134.874283 109.321991,133.896622 110.375862,132.795517 
z"/>
<path fill="#E0DEB9" opacity="1.000000" stroke="none" 
	d="
M107.546234,135.928650 
	C108.028938,137.458084 107.250214,138.462006 105.347549,138.978180 
	C105.752243,138.031067 106.507233,137.047958 107.546234,135.928650 
z"/>
<path fill="#E0DEB9" opacity="1.000000" stroke="none" 
	d="
M113.772507,129.153809 
	C113.748329,129.558746 113.458237,130.048660 112.868332,130.563950 
	C112.881203,130.139145 113.193901,129.688965 113.772507,129.153809 
z"/>
<path fill="#E0DEB9" opacity="1.000000" stroke="none" 
	d="
M128.784119,114.325867 
	C128.756439,114.703354 128.473267,115.158920 127.909790,115.648674 
	C127.929207,115.256561 128.228912,114.830261 128.784119,114.325867 
z"/>
<path fill="#E0DEB9" opacity="1.000000" stroke="none" 
	d="
M53.587208,229.738281 
	C53.740196,229.935577 53.633106,230.282181 53.326408,230.821686 
	C53.193577,230.638947 53.260353,230.263260 53.587208,229.738281 
z"/>
<path fill="#E0DEB9" opacity="1.000000" stroke="none" 
	d="
M111.415771,131.743896 
	C111.501213,131.966934 111.338799,132.270905 110.913033,132.634674 
	C110.822426,132.404587 110.995171,132.114716 111.415771,131.743896 
z"/>
<path fill="#E0DEB9" opacity="1.000000" stroke="none" 
	d="
M112.304337,130.717590 
	C112.409325,130.932632 112.284767,131.243607 111.902451,131.618225 
	C111.651299,131.324692 111.794662,131.035248 112.304337,130.717590 
z"/>
<path fill="#E0DEB9" opacity="1.000000" stroke="none" 
	d="
M56.453434,221.503632 
	C56.613060,221.703781 56.515816,222.116562 56.191242,222.761215 
	C56.041466,222.567474 56.119015,222.141891 56.453434,221.503632 
z"/>
<path fill="#E0DEB9" opacity="1.000000" stroke="none" 
	d="
M115.721725,127.022331 
	C115.804489,127.236565 115.626945,127.515724 115.219452,127.900925 
	C115.146812,127.700401 115.304115,127.393829 115.721725,127.022331 
z"/>
<path fill="#E0DEB9" opacity="1.000000" stroke="none" 
	d="
M116.733658,126.020370 
	C116.809059,126.239105 116.620537,126.515778 116.194298,126.887695 
	C116.127632,126.681389 116.298691,126.379837 116.733658,126.020370 
z"/>
<path fill="#E0DEB9" opacity="1.000000" stroke="none" 
	d="
M118.707611,124.002869 
	C118.789268,124.222496 118.604858,124.506332 118.181946,124.891174 
	C118.109489,124.683815 118.275520,124.375450 118.707611,124.002869 
z"/>
<path fill="#E0DEB9" opacity="1.000000" stroke="none" 
	d="
M119.716454,123.009430 
	C119.790527,123.223701 119.604301,123.504761 119.177444,123.879974 
	C119.109940,123.674820 119.283051,123.375511 119.716454,123.009430 
z"/>
<path fill="#E0DEB9" opacity="1.000000" stroke="none" 
	d="
M130.588058,112.788071 
	C130.644684,113.049232 130.384476,113.366272 129.821808,113.769691 
	C129.769989,113.518692 130.020599,113.181320 130.588058,112.788071 
z"/>
<path fill="#E0DEB9" opacity="1.000000" stroke="none" 
	d="
M120.718094,121.986961 
	C120.800095,122.216537 120.611420,122.498657 120.182549,122.879486 
	C120.110703,122.665291 120.279060,122.352402 120.718094,121.986961 
z"/>
<path fill="#E0DEB9" opacity="1.000000" stroke="none" 
	d="
M122.744385,120.055099 
	C122.816849,120.274033 122.622040,120.544189 122.189331,120.905182 
	C122.126648,120.699463 122.301880,120.402893 122.744385,120.055099 
z"/>
<path fill="#E0DEB9" opacity="1.000000" stroke="none" 
	d="
M127.399559,115.742950 
	C127.469292,115.978371 127.253204,116.322685 126.733063,116.751801 
	C126.657249,116.508347 126.885498,116.180084 127.399559,115.742950 
z"/>
<path fill="#FBB30D" opacity="1.000000" stroke="none" 
	d="
M316.102692,455.808594 
	C259.515381,454.376923 210.283340,417.821747 193.339371,364.353210 
	C180.678726,324.401154 185.132446,286.265747 208.417587,251.143234 
	C228.611145,220.683914 257.299866,201.836075 292.933594,194.515442 
	C325.352478,187.855270 355.866333,194.416763 383.986511,211.651627 
	C412.595032,229.185791 432.667908,254.047882 441.283264,286.357910 
	C455.370453,339.188934 441.942322,385.255615 402.201355,422.901703 
	C381.307953,442.693756 355.763794,452.958679 327.017548,455.072327 
	C323.535248,455.328369 320.051453,455.564209 316.102692,455.808594 
z"/>
<path fill="#020202" opacity="1.000000" stroke="none" 
	d="
M441.294281,167.278076 
	C455.699249,155.420944 471.729736,147.804230 489.765808,144.613281 
	C497.022339,143.329468 501.178772,146.920074 499.660645,154.109650 
	C493.527771,183.153351 478.935425,205.961716 450.538452,217.980637 
	C447.000092,219.478210 443.240204,220.096863 439.342987,220.068069 
	C427.322021,219.979263 419.724518,211.040253 421.390472,199.016190 
	C422.677979,189.723648 427.389160,182.229431 433.402130,175.399994 
	C435.816071,172.658264 438.480682,170.137207 441.294281,167.278076 
z"/>
<path fill="#020202" opacity="1.000000" stroke="none" 
	d="
M143.600342,144.359116 
	C165.341919,149.061859 184.049881,158.499908 199.045471,174.627838 
	C204.903976,180.928711 209.220779,188.124832 211.023361,196.690720 
	C214.553940,213.468033 203.917404,223.688553 187.177216,219.547455 
	C175.044052,216.546021 165.901917,208.861572 157.523529,200.203705 
	C145.246765,187.517456 136.450424,172.873611 133.472549,155.160614 
	C132.179199,147.467468 135.295044,143.927368 143.600342,144.359116 
z"/>
<path fill="#020202" opacity="1.000000" stroke="none" 
	d="
M423.565918,435.789062 
	C427.806152,428.910797 433.811859,427.213135 440.990967,428.534668 
	C451.574768,430.482971 460.706451,435.513458 468.744751,442.425568 
	C484.881561,456.301392 495.632446,473.480865 499.335999,494.645630 
	C500.717987,502.543304 496.852417,506.609589 489.335968,504.784119 
	C466.564117,499.253601 446.264252,489.197876 431.086670,470.684082 
	C425.526520,463.901764 421.813904,456.136047 421.153748,447.184692 
	C420.866394,443.288788 421.542297,439.576965 423.565918,435.789062 
z"/>
<path fill="#020202" opacity="1.000000" stroke="none" 
	d="
M149.002502,460.023315 
	C159.520554,446.520111 171.504669,435.478149 187.793671,430.035828 
	C203.239044,424.875366 213.961319,433.834442 211.466919,449.955231 
	C209.352768,463.618591 200.953140,473.493317 191.021454,482.161133 
	C177.848953,493.657349 162.516876,501.020905 145.385986,504.541290 
	C135.336105,506.606506 132.061325,503.278259 133.855850,493.124542 
	C136.016953,480.896545 141.675400,470.276031 149.002502,460.023315 
z"/>
<path fill="#040403" opacity="1.000000" stroke="none" 
	d="
M140.463730,385.293365 
	C150.153931,392.616272 149.126572,404.967743 138.628067,410.019501 
	C133.425339,412.523010 128.120102,414.894043 122.675774,416.793335 
	C116.687469,418.882446 111.562149,416.391418 108.754990,410.705536 
	C105.661690,404.440033 106.758415,397.465271 112.132072,394.301880 
	C118.964760,390.279541 126.278786,387.113220 133.808609,384.522797 
	C136.023987,383.760620 138.062607,384.475433 140.463730,385.293365 
z"/>
<path fill="#040403" opacity="1.000000" stroke="none" 
	d="
M514.219910,390.814148 
	C520.531555,393.849518 526.337463,396.769470 526.041382,404.918915 
	C525.704773,414.186096 518.379272,419.715485 509.701477,416.680298 
	C503.600586,414.546448 497.502960,412.193054 492.115753,408.509674 
	C485.763214,404.166229 484.201233,396.388702 488.180725,390.079041 
	C491.055878,385.520355 495.991089,383.418579 501.067566,385.173309 
	C505.447693,386.687256 509.618958,388.805450 514.219910,390.814148 
z"/>
<path fill="#040403" opacity="1.000000" stroke="none" 
	d="
M380.617981,134.834244 
	C383.321381,129.814407 385.599426,124.998901 388.359314,120.477516 
	C392.086792,114.371056 398.136841,112.786118 404.264191,115.889503 
	C410.388824,118.991524 413.491211,126.185997 410.819092,132.285751 
	C408.493317,137.594788 405.657104,142.694565 402.829498,147.765854 
	C399.050140,154.544159 393.280701,156.339325 386.388275,153.133896 
	C379.768433,150.055222 377.276825,144.066025 379.695496,137.030289 
	C379.911224,136.402664 380.169006,135.789490 380.617981,134.834244 
z"/>
<path fill="#030403" opacity="1.000000" stroke="none" 
	d="
M229.512650,532.768372 
	C221.896576,528.248108 220.046631,523.146545 223.344055,515.425293 
	C225.493027,510.393219 227.798218,505.377991 230.576904,500.676422 
	C234.686417,493.723022 241.242798,492.130524 248.128754,495.877747 
	C254.210709,499.187439 256.364685,506.181396 253.114349,513.071838 
	C250.923965,517.715271 248.492096,522.268738 245.842239,526.666077 
	C241.670944,533.588135 237.936325,534.924011 229.512650,532.768372 
z"/>
<path fill="#040404" opacity="1.000000" stroke="none" 
	d="
M133.371826,267.785034 
	C126.387650,265.389008 119.951912,262.705688 113.812057,259.382996 
	C107.294907,255.856110 105.143448,249.077362 108.232315,242.373062 
	C111.244751,235.834641 116.819710,233.502792 123.986511,236.333832 
	C129.540207,238.527679 134.978912,241.093033 140.246460,243.908981 
	C145.897766,246.930099 148.186783,252.567871 146.635895,258.202850 
	C144.996094,264.161011 140.306381,267.686066 133.371826,267.785034 
z"/>
<path fill="#030303" opacity="1.000000" stroke="none" 
	d="
M386.725922,525.244629 
	C384.321899,520.862976 381.858032,516.897522 379.977783,512.672363 
	C376.841492,505.624878 379.148315,499.062134 385.527405,495.757538 
	C392.520508,492.134857 398.250641,493.547333 402.424255,500.641998 
	C405.603882,506.047119 408.199768,511.818237 410.760620,517.558044 
	C412.986420,522.546875 411.240997,527.963074 406.818573,531.156311 
	C401.616455,534.912537 395.541870,534.936401 391.277924,530.958252 
	C389.602600,529.395203 388.365204,527.362793 386.725922,525.244629 
z"/>
<path fill="#030303" opacity="1.000000" stroke="none" 
	d="
M221.819397,127.073456 
	C222.903992,119.943848 226.189987,116.009216 231.546188,114.991356 
	C237.644592,113.832436 242.208481,115.880539 245.620804,121.876945 
	C248.564514,127.049850 251.356659,132.344803 253.727264,137.798172 
	C256.183563,143.448700 253.756958,149.461426 248.320328,152.672668 
	C242.989334,155.821564 235.184464,155.205185 232.034439,150.412445 
	C227.425812,143.400421 223.332642,135.976089 221.819397,127.073456 
z"/>
<path fill="#030303" opacity="1.000000" stroke="none" 
	d="
M524.748657,254.368835 
	C517.025391,261.961487 507.964996,266.143829 497.614258,266.996704 
	C492.252014,267.438568 488.498413,263.823822 486.630554,257.901550 
	C485.074860,252.968796 486.576508,248.192703 491.114380,245.305725 
	C498.168976,240.817581 505.973358,237.875092 513.991455,235.715927 
	C519.308960,234.283966 524.660889,238.807877 525.782410,245.236069 
	C526.294434,248.170837 526.450134,251.214310 524.748657,254.368835 
z"/>
</svg>