<svg version="1.1" id="Layer_1" xmlns="http://www.w3.org/2000/svg" xmlns:xlink="http://www.w3.org/1999/xlink" x="0px" y="0px"
	 width="100%" viewBox="0 0 797 513" enable-background="new 0 0 797 513" xml:space="preserve">
<path fill="#000002" opacity="1.000000" stroke="none" 
	d="
M1.000000,354.444153 
	C2.053625,348.235840 2.802511,342.396057 4.210342,336.719757 
	C13.322551,299.979919 56.694824,285.148926 85.479088,306.989166 
	C96.373764,315.255554 101.403595,330.167450 97.170036,341.387146 
	C93.546936,350.989014 82.632172,355.938049 73.757217,352.064209 
	C68.304977,349.684326 65.701294,345.311920 65.077660,339.660736 
	C64.179893,331.525421 59.056221,328.190796 51.188854,330.802521 
	C43.048759,333.504822 37.987225,339.502472 36.311153,347.442688 
	C34.300457,356.968170 36.955246,365.963684 44.945889,371.963654 
	C52.766003,377.835571 61.200500,382.968201 69.701279,387.838959 
	C90.224525,399.598236 101.686951,417.170258 102.331001,440.674408 
	C103.039154,466.517822 90.708351,485.454102 68.269997,497.908142 
	C56.776020,504.287689 44.106949,506.881653 31.305197,508.954224 
	C26.109045,509.795471 20.907057,510.601257 15.704515,511.402313 
	C10.273015,512.238708 5.972616,509.077057 5.965394,503.669525 
	C5.939027,483.927765 6.036734,464.184296 6.309629,444.444580 
	C6.395792,438.212036 11.883196,433.155365 18.704283,432.250824 
	C25.764538,431.314545 33.727470,435.353821 35.234871,442.144470 
	C36.715031,448.812408 36.372425,455.886475 36.807541,462.783722 
	C36.910618,464.417633 37.048721,466.064178 36.955341,467.692596 
	C36.736839,471.502869 39.202980,472.599426 42.055191,471.873596 
	C46.470772,470.749878 51.416294,469.816895 54.878853,467.161957 
	C71.352264,454.531158 75.560875,435.395691 55.684341,420.938904 
	C47.799324,415.203827 39.278297,410.320648 30.908026,405.280151 
	C14.534402,395.420197 4.861079,381.101471 1.363502,362.149048 
	C1.000000,359.629425 1.000000,357.258881 1.000000,354.444153 
z"/>
<path fill="#000002" opacity="1.000000" stroke="none" 
	d="
M516.571533,1.000000 
	C525.162354,3.727032 531.411377,8.424681 532.419617,17.584862 
	C532.762817,20.703384 532.464661,24.305996 531.188721,27.108908 
	C527.838562,34.468430 523.958557,41.605377 519.975708,48.653587 
	C514.936401,57.571312 506.134216,60.230015 497.138000,55.895126 
	C488.017792,51.500484 483.931366,42.408615 487.988281,33.187096 
	C491.768372,24.594870 496.262726,16.236519 501.294647,8.316516 
	C503.201630,5.314992 507.489655,3.826263 510.846191,1.323996 
	C512.714355,1.000000 514.428711,1.000000 516.571533,1.000000 
z"/>
<path fill="#000003" opacity="1.000000" stroke="none" 
	d="
M282.625000,1.000000 
	C295.115784,3.453233 298.720490,13.942397 303.712830,23.061478 
	C305.532227,26.384815 307.151428,29.846481 308.539734,33.371906 
	C313.528778,46.041039 304.344421,58.512718 290.762665,57.727539 
	C284.084351,57.341454 278.912567,54.485172 275.964966,48.450897 
	C272.054535,40.445606 268.102936,32.425278 264.848877,24.144260 
	C261.485413,15.584735 267.514679,3.137976 279.813049,1.324520 
	C280.750000,1.000000 281.500000,1.000000 282.625000,1.000000 
z"/>
<path fill="#FAB20D" opacity="1.000000" stroke="none" 
	d="
M573.108032,245.906509 
	C574.706543,252.208298 577.023560,258.428162 577.753296,264.828979 
	C579.250732,277.962250 580.666321,291.194580 580.630371,304.382050 
	C580.605408,313.524872 578.098450,322.660889 575.976929,331.735596 
	C575.192688,323.901520 575.180298,316.130981 575.058228,308.362213 
	C574.920044,299.571381 571.267151,295.962189 562.684204,295.971466 
	C560.025024,295.974335 557.364319,295.910583 554.706970,295.979248 
	C547.011230,296.178131 543.241028,300.084930 543.287109,307.868469 
	C543.444641,334.444641 543.699524,361.020508 543.766296,387.596863 
	C543.785706,395.325714 543.300232,403.055847 543.046204,410.785370 
	C537.561890,416.787415 532.077576,422.789490 526.053467,428.599182 
	C525.419556,404.140228 525.303833,379.873718 525.239075,355.607056 
	C525.195312,339.229767 525.326050,322.851257 525.170959,306.475281 
	C525.105530,299.573883 521.332458,296.093689 514.281982,295.871246 
	C510.686188,295.757782 507.075806,295.723511 503.485382,295.910706 
	C497.730194,296.210724 494.053802,300.082214 493.996918,305.928894 
	C493.867889,319.184601 493.836182,332.441406 493.793640,345.697876 
	C493.765869,354.359985 493.788422,363.022278 493.788422,371.913635 
	C481.931885,371.913635 470.664429,371.913635 459.288971,371.913635 
	C459.172821,370.522217 459.021301,369.546631 459.020233,368.570892 
	C458.998718,348.376434 459.004059,328.182007 458.981598,307.987549 
	C458.972809,300.071289 455.082947,296.122681 447.152100,295.924835 
	C444.659119,295.862671 442.164948,295.839935 439.671143,295.820465 
	C430.824829,295.751495 427.083435,299.419312 427.067291,308.417664 
	C427.004272,343.556183 426.976013,378.694763 426.965698,413.833344 
	C426.961121,429.482117 426.909027,445.132446 427.108734,460.779144 
	C427.236145,470.761414 431.646606,474.903931 441.531738,475.008545 
	C444.354401,475.038422 447.176605,475.112610 449.999023,475.166504 
	C436.961212,477.399261 423.952057,479.819489 410.878632,481.819489 
	C392.605408,484.614960 374.770416,480.331451 356.835236,477.927979 
	C355.574982,477.759125 354.395752,476.985260 353.218201,476.008789 
	C360.664459,474.935638 368.196075,475.009552 375.457184,473.644592 
	C410.085571,467.134979 427.385193,430.706360 411.183868,399.342529 
	C404.375336,386.162018 392.286957,379.402435 380.336182,372.090576 
	C373.367950,367.827209 366.589233,362.830536 360.917938,357.003052 
	C356.271057,352.228210 356.315521,345.343475 359.267151,339.240570 
	C361.978607,333.634277 366.809540,330.496033 373.101715,330.113098 
	C378.683960,329.773438 379.841492,330.976105 380.016052,336.540192 
	C380.256470,344.203125 387.156982,350.160156 395.725281,349.853546 
	C401.984924,349.629517 410.833710,345.017273 410.274567,336.095428 
	C409.720551,327.256195 410.023071,318.361725 409.998505,309.491333 
	C409.976013,301.370850 406.701019,296.993866 398.119598,296.353180 
	C387.997101,295.597473 377.582550,294.723358 367.646973,296.227722 
	C333.734924,301.362305 319.710388,328.516052 323.558472,358.410431 
	C325.873291,376.393585 337.576904,388.270508 352.624146,397.168427 
	C359.628601,401.310394 366.879089,405.069061 373.670685,409.530273 
	C383.610046,416.059174 385.679230,426.838165 378.945251,434.570007 
	C374.739594,439.398895 365.748413,441.620453 358.896973,439.347198 
	C358.896973,438.136902 358.911407,436.823364 358.894653,435.510223 
	C358.771362,425.836304 351.576050,418.813416 342.032318,419.045166 
	C333.443726,419.253693 327.344208,426.415558 327.509186,435.849426 
	C327.693909,446.413422 327.709900,456.980408 327.799316,467.546082 
	C323.130646,465.443573 318.461945,463.341064 313.370453,460.665588 
	C312.950439,451.223663 312.955658,442.354706 312.955597,433.485718 
	C312.955414,398.834961 312.954773,364.184174 312.950958,329.533417 
	C312.950378,324.332642 312.779541,319.126862 312.950989,313.932098 
	C313.405609,300.157867 309.939117,295.038666 294.573120,295.971863 
	C293.244843,296.052521 291.896545,295.890442 290.578339,296.033142 
	C284.817139,296.657013 281.045654,299.944977 280.966064,304.878693 
	C280.716034,320.381989 280.620575,335.888000 280.516052,351.393311 
	C280.459412,359.796234 280.505951,368.199829 280.505951,377.926025 
	C275.388458,362.791809 270.653687,349.049530 266.104980,335.245972 
	C263.072113,326.042389 260.282654,316.758179 257.423981,307.497772 
	C254.451782,297.869598 252.123032,296.074768 242.204300,295.998230 
	C239.047699,295.973877 235.880066,295.868744 232.735962,296.077972 
	C227.784531,296.407532 223.349411,300.146698 223.335709,304.098389 
	C223.311371,311.116669 223.659332,318.136871 223.600998,325.154175 
	C223.548157,331.508423 223.161118,337.859924 222.921432,344.212616 
	C218.969635,331.118317 216.336441,317.747467 216.410599,304.066833 
	C216.476639,291.881683 216.600388,279.586243 218.270035,267.557587 
	C219.464355,258.953369 223.296967,250.722260 225.873398,242.300507 
	C227.565079,236.770676 228.738403,231.050461 230.832108,225.684036 
	C233.096313,219.880554 236.066315,214.339752 238.966171,208.809006 
	C239.472046,207.844162 241.152985,207.495422 242.517029,206.736496 
	C240.809509,202.954178 244.158127,199.894394 246.146957,196.618362 
	C248.312119,193.051834 251.089417,189.856979 253.597488,186.498337 
	C253.696671,186.365540 253.741684,186.126450 253.862564,186.085205 
	C258.717773,184.428650 260.544830,180.259262 262.614807,176.300812 
	C263.177765,185.670700 263.579071,194.736008 263.556915,203.800278 
	C263.506195,224.558105 263.173584,245.315277 263.122009,266.073120 
	C263.107025,272.102386 265.590210,276.289398 270.849091,277.120392 
	C276.777924,278.057220 283.089722,278.214294 288.988220,277.230835 
	C294.740021,276.271851 296.949158,272.172943 296.999268,266.357178 
	C297.055817,259.793182 297.186920,253.229309 297.181549,246.665466 
	C297.172821,236.004959 297.035095,225.344543 297.036591,214.684082 
	C297.037659,206.908096 297.186096,199.132217 297.246948,191.356125 
	C297.275299,187.732910 297.251801,184.109314 297.251801,180.485886 
	C299.997772,187.382446 302.120239,194.291397 303.949585,201.277130 
	C309.698029,223.228500 315.115082,245.270660 321.230713,267.118011 
	C322.273529,270.843445 325.463043,274.910065 328.804138,276.869934 
	C338.086914,282.315063 348.981110,277.137482 352.443787,265.973236 
	C355.604156,255.783707 358.273254,245.436630 360.971619,235.110062 
	C365.726074,216.915024 370.337891,198.682693 375.009399,180.465988 
	C376.002808,209.168182 375.998199,237.647614 376.005859,266.127045 
	C376.007935,273.859833 380.151886,277.960083 387.967041,277.994507 
	C391.464996,278.009918 394.963287,278.021545 398.461060,277.991364 
	C405.632599,277.929535 409.935638,273.758087 409.980652,266.622253 
	C410.100586,247.614761 410.188690,228.606812 410.202362,209.598984 
	C410.225311,177.736267 410.180695,145.873505 410.164490,114.010757 
	C415.440948,114.392212 420.717468,114.773674 426.468872,115.609589 
	C426.963013,118.063065 426.998230,120.062057 426.999207,122.061073 
	C427.022614,170.048264 427.025970,218.035477 427.079163,266.022614 
	C427.087860,273.882660 431.207184,277.910065 439.029938,277.973816 
	C441.861023,277.996887 444.693085,277.977356 447.523956,277.931580 
	C456.018829,277.794250 459.844330,273.948364 459.885742,265.325653 
	C459.957672,250.348923 459.951111,235.371796 459.969604,220.394836 
	C459.978973,212.805664 459.971252,205.216476 459.971252,197.804016 
	C469.380676,195.424911 483.052368,206.003738 485.857666,218.839752 
	C487.500214,226.355316 487.004791,234.310745 488.084991,241.981857 
	C491.036072,262.938477 511.302124,282.827850 537.143433,278.236389 
	C555.877380,274.907806 567.845581,264.165070 573.108032,245.906509 
z"/>
<path fill="#000000" opacity="1.000000" stroke="none" 
	d="
M410.095551,113.546043 
	C410.180695,145.873505 410.225311,177.736267 410.202362,209.598984 
	C410.188690,228.606812 410.100586,247.614761 409.980652,266.622253 
	C409.935638,273.758087 405.632599,277.929535 398.461060,277.991364 
	C394.963287,278.021545 391.464996,278.009918 387.967041,277.994507 
	C380.151886,277.960083 376.007935,273.859833 376.005859,266.127045 
	C375.998199,237.647614 376.002808,209.168182 375.009399,180.465988 
	C370.337891,198.682693 365.726074,216.915024 360.971619,235.110062 
	C358.273254,245.436630 355.604156,255.783707 352.443787,265.973236 
	C348.981110,277.137482 338.086914,282.315063 328.804138,276.869934 
	C325.463043,274.910065 322.273529,270.843445 321.230713,267.118011 
	C315.115082,245.270660 309.698029,223.228500 303.949585,201.277130 
	C302.120239,194.291397 299.997772,187.382446 297.251801,180.485886 
	C297.251801,184.109314 297.275299,187.732910 297.246948,191.356125 
	C297.186096,199.132217 297.037659,206.908096 297.036591,214.684082 
	C297.035095,225.344543 297.172821,236.004959 297.181549,246.665466 
	C297.186920,253.229309 297.055817,259.793182 296.999268,266.357178 
	C296.949158,272.172943 294.740021,276.271851 288.988220,277.230835 
	C283.089722,278.214294 276.777924,278.057220 270.849091,277.120392 
	C265.590210,276.289398 263.107025,272.102386 263.122009,266.073120 
	C263.173584,245.315277 263.506195,224.558105 263.556915,203.800278 
	C263.579071,194.736008 263.177765,185.670700 262.904053,176.114563 
	C262.917877,149.633148 263.186737,123.641357 262.954041,97.654045 
	C262.887970,90.277580 268.100586,85.720726 274.421600,85.956818 
	C281.730469,86.229797 289.057861,85.990875 296.377167,86.006111 
	C303.366028,86.020668 308.076202,89.116081 309.953308,95.829315 
	C313.276489,107.714226 316.182068,119.715897 319.632019,132.246124 
	C322.664795,143.066635 325.311584,153.314026 327.995605,163.551636 
	C330.831299,174.367645 333.702484,185.174347 336.826721,197.001770 
	C340.424194,183.854492 343.752197,171.828537 347.000488,159.781082 
	C350.028046,148.552231 353.021790,137.313583 355.912079,126.048882 
	C356.566956,123.496422 356.732971,120.818520 357.124023,118.198364 
	C359.081390,111.177498 361.176758,104.191429 362.958099,97.126190 
	C364.809418,89.783386 369.316864,86.025307 376.924316,86.005463 
	C384.419250,85.985916 391.914276,85.989388 399.409210,86.004578 
	C406.363617,86.018677 409.974579,89.637482 409.997223,96.592720 
	C410.015076,102.088898 410.017395,107.585121 410.095551,113.546043 
z"/>
<path fill="#010100" opacity="1.000000" stroke="none" 
	d="
M573.108276,245.492828 
	C567.845581,264.165070 555.877380,274.907806 537.143433,278.236389 
	C511.302124,282.827850 491.036072,262.938477 488.084991,241.981857 
	C487.004791,234.310745 487.500214,226.355316 485.857666,218.839752 
	C483.052368,206.003738 469.380676,195.424911 459.971252,197.804016 
	C459.971252,205.216476 459.978973,212.805664 459.969604,220.394836 
	C459.951111,235.371796 459.957672,250.348923 459.885742,265.325653 
	C459.844330,273.948364 456.018829,277.794250 447.523956,277.931580 
	C444.693085,277.977356 441.861023,277.996887 439.029938,277.973816 
	C431.207184,277.910065 427.087860,273.882660 427.079163,266.022614 
	C427.025970,218.035477 427.022614,170.048264 426.999207,122.061073 
	C426.998230,120.062057 426.963013,118.063065 426.908234,115.606033 
	C426.916626,108.827202 426.860107,102.503632 427.033661,96.186394 
	C427.196075,90.273827 430.758606,86.141525 436.566986,86.164536 
	C453.093933,86.230026 469.713501,85.724190 486.125092,87.267174 
	C518.365173,90.298332 540.627014,122.606209 532.869934,154.065781 
	C531.749512,158.609848 528.990540,162.749863 526.677490,167.650314 
	C520.245300,178.322784 511.407745,184.903168 499.542755,188.039719 
	C500.613098,188.956619 501.063965,189.452179 501.610565,189.795166 
	C515.153992,198.292908 521.228638,210.748398 521.259338,226.504761 
	C521.266663,230.289963 521.405090,234.120422 521.997864,237.848251 
	C522.880371,243.398697 527.309998,246.610703 532.550110,245.991776 
	C536.902283,245.477722 539.104980,242.303238 539.117676,236.513107 
	C539.119812,235.515778 539.101013,234.518127 539.075989,233.521042 
	C538.705078,218.766190 546.186584,212.470093 560.836060,215.211548 
	C570.819397,219.608047 574.840759,229.831436 573.195618,242.595245 
	C573.090149,243.413361 573.134094,244.250748 573.108276,245.492828 
M500.078674,144.587372 
	C502.613678,133.357010 494.171875,123.442719 483.742462,122.250450 
	C476.951263,121.474091 470.006317,122.087540 463.132355,121.963486 
	C460.969788,121.924454 459.484070,122.206772 459.964508,125.820305 
	C459.964508,137.063110 459.964508,148.305923 459.964508,160.061844 
	C468.452026,160.061844 476.514709,160.494827 484.510101,159.946686 
	C493.481842,159.331589 499.770813,151.893875 500.078674,144.587372 
z"/>
<path fill="#000002" opacity="1.000000" stroke="none" 
	d="
M592.533630,302.993469 
	C594.439026,297.671722 598.210999,295.871490 603.135437,295.872589 
	C605.128052,295.873047 607.120483,295.978271 609.113281,295.989990 
	C619.549072,296.051422 623.378052,298.654846 626.835144,308.526825 
	C634.474182,330.340820 642.002136,352.193756 649.610107,374.018677 
	C650.405701,376.300995 651.433167,378.502472 653.260193,380.728088 
	C653.260193,375.448303 653.272949,370.168518 653.257935,364.888763 
	C653.203491,345.732849 653.125305,326.576996 653.086731,307.421051 
	C653.071594,299.878204 656.769653,295.989410 664.138672,295.757233 
	C667.239624,295.659515 670.345337,295.616791 673.447266,295.660828 
	C680.337463,295.758606 684.559937,299.707855 684.666138,306.831604 
	C684.914185,323.478638 684.951843,340.129913 684.945618,356.779419 
	C684.930481,397.118011 684.845520,437.456573 684.779785,477.795166 
	C684.764587,487.101288 682.309937,491.110413 674.696350,492.343567 
	C667.147522,493.566193 658.362915,492.211578 655.260620,484.146790 
	C649.070068,468.054138 643.096558,451.877625 637.089355,435.714935 
	C632.863464,424.345062 628.730103,412.940796 623.999634,401.614075 
	C623.999634,416.196655 624.009338,430.779236 623.996155,445.361816 
	C623.987671,454.691345 624.004944,464.021545 623.899475,473.350189 
	C623.813538,480.945831 618.168518,486.077698 610.625488,485.574799 
	C610.312622,485.553925 610.020935,485.260529 609.705322,485.227478 
	C593.153992,483.493195 592.574829,482.465729 592.596924,465.754303 
	C592.640747,432.620819 592.223206,399.487030 592.128601,366.352997 
	C592.068665,345.349365 592.247375,324.345032 592.533630,302.993469 
z"/>
<path fill="#010101" opacity="1.000000" stroke="none" 
	d="
M222.892776,344.624756 
	C223.161118,337.859924 223.548157,331.508423 223.600998,325.154175 
	C223.659332,318.136871 223.311371,311.116669 223.335709,304.098389 
	C223.349411,300.146698 227.784531,296.407532 232.735962,296.077972 
	C235.880066,295.868744 239.047699,295.973877 242.204300,295.998230 
	C252.123032,296.074768 254.451782,297.869598 257.423981,307.497772 
	C260.282654,316.758179 263.072113,326.042389 266.104980,335.245972 
	C270.653687,349.049530 275.388458,362.791809 280.505951,377.926025 
	C280.505951,368.199829 280.459412,359.796234 280.516052,351.393311 
	C280.620575,335.888000 280.716034,320.381989 280.966064,304.878693 
	C281.045654,299.944977 284.817139,296.657013 290.578339,296.033142 
	C291.896545,295.890442 293.244843,296.052521 294.573120,295.971863 
	C309.939117,295.038666 313.405609,300.157867 312.950989,313.932098 
	C312.779541,319.126862 312.950378,324.332642 312.950958,329.533417 
	C312.954773,364.184174 312.955414,398.834961 312.955597,433.485718 
	C312.955658,442.354706 312.950439,451.223663 313.022644,460.558014 
	C311.725128,473.364746 309.571777,476.992798 300.489929,478.457825 
	C290.335297,480.095917 284.150360,479.480255 279.941650,467.596283 
	C274.706665,452.814606 269.148132,438.147217 263.678223,423.449493 
	C262.939117,421.463531 261.902802,419.588196 260.988953,416.912903 
	C259.318848,411.440857 257.663849,406.717621 256.008881,401.994354 
	C255.622086,402.119049 255.235275,402.243713 254.848480,402.368408 
	C255.008743,405.319702 255.169006,408.271027 255.329285,411.222321 
	C255.253922,430.550720 255.135391,449.879059 255.123276,469.207489 
	C255.118027,477.596832 249.778763,483.063843 241.283600,483.113007 
	C239.955414,483.120697 238.626328,483.158569 237.299759,483.224609 
	C227.876694,483.693787 223.384979,479.686462 223.294495,470.149994 
	C223.186142,458.731537 223.504761,447.309784 223.491470,435.889618 
	C223.460205,409.014069 223.354401,382.138519 223.242264,355.263153 
	C223.228043,351.853943 222.995514,348.445648 222.892776,344.624756 
z"/>
<path fill="#000001" opacity="1.000000" stroke="none" 
	d="
M209.966461,321.008728 
	C209.974167,360.293213 210.156250,399.077942 209.912521,437.860046 
	C209.751282,463.519379 191.398514,489.440735 160.469299,490.653442 
	C135.273071,491.641327 115.720139,473.916565 113.999969,452.643860 
	C112.596489,435.287598 113.002121,417.771027 112.929634,400.324188 
	C112.798706,368.811615 112.911346,337.298004 112.918350,305.784851 
	C112.919601,300.166626 116.346161,296.263092 121.776672,296.045563 
	C126.257942,295.866028 130.758362,295.811157 135.237106,296.005371 
	C141.761856,296.288361 145.096252,300.427582 145.095718,307.073914 
	C145.092270,349.498749 145.119415,391.924011 145.366669,434.347778 
	C145.392456,438.771667 146.132599,443.539673 147.914505,447.535645 
	C152.176132,457.092468 163.789825,458.837860 170.978104,451.298523 
	C174.848495,447.239105 177.101654,442.408508 177.086563,436.504333 
	C176.977173,393.714661 177.005600,350.924713 176.966263,308.134827 
	C176.957809,298.924194 180.093613,295.869110 189.623856,295.949341 
	C192.942734,295.977295 196.267593,295.831726 199.579956,295.981415 
	C205.629227,296.254730 208.847092,299.014740 209.457901,305.070740 
	C209.973373,310.181366 209.818207,315.359589 209.966461,321.008728 
z"/>
<path fill="#000002" opacity="1.000000" stroke="none" 
	d="
M739.742432,428.853394 
	C739.783142,440.654114 740.010315,452.095734 739.849792,463.531921 
	C739.796570,467.321594 741.569153,467.745911 744.641907,468.018372 
	C759.046143,469.295593 773.453125,470.605438 787.811951,472.303131 
	C794.785156,473.127625 797.043884,476.344635 797.026306,483.444458 
	C797.012695,488.940155 797.045654,494.436096 797.008667,499.931580 
	C796.960938,507.036743 793.349365,510.333862 786.342346,509.256470 
	C765.912720,506.115326 745.508240,502.810913 725.089539,499.598450 
	C721.659729,499.058838 718.181274,498.800720 714.772583,498.160858 
	C709.168945,497.108978 706.130127,493.442566 706.131836,487.688232 
	C706.139099,463.695251 706.245361,439.702301 706.259033,415.709290 
	C706.272400,392.246674 706.211243,368.784027 706.194885,345.321381 
	C706.185852,332.348541 706.204956,319.375702 706.204468,306.402863 
	C706.204163,299.398254 709.890076,295.657837 716.814575,295.696838 
	C731.905090,295.781769 746.995483,295.897827 762.086060,295.968628 
	C770.065125,296.006042 778.044861,295.932892 786.023743,295.988037 
	C793.115662,296.037048 797.099670,300.120331 797.057312,307.113464 
	C797.029053,311.776489 796.997559,316.440186 797.044312,321.102844 
	C797.120972,328.754059 793.573242,332.377167 785.810669,332.320648 
	C771.871582,332.219086 757.933044,332.047089 743.994019,331.925629 
	C742.860474,331.915741 741.725464,332.067474 740.134521,332.174988 
	C740.134521,348.676483 740.134521,364.984131 740.134521,381.863495 
	C750.776062,381.863495 761.342407,381.915863 771.908020,381.848572 
	C782.150513,381.783295 785.562317,385.203033 785.307251,395.348389 
	C785.217224,398.928497 785.344849,402.514221 785.378052,406.097321 
	C785.452637,414.135773 781.674316,417.999054 773.675232,418.009338 
	C762.558105,418.023621 751.441040,418.012909 739.777832,418.012909 
	C739.777832,421.471252 739.777832,424.981720 739.742432,428.853394 
z"/>
<path fill="#010100" opacity="1.000000" stroke="none" 
	d="
M450.289368,475.039246 
	C447.176605,475.112610 444.354401,475.038422 441.531738,475.008545 
	C431.646606,474.903931 427.236145,470.761414 427.108734,460.779144 
	C426.909027,445.132446 426.961121,429.482117 426.965698,413.833344 
	C426.976013,378.694763 427.004272,343.556183 427.067291,308.417664 
	C427.083435,299.419312 430.824829,295.751495 439.671143,295.820465 
	C442.164948,295.839935 444.659119,295.862671 447.152100,295.924835 
	C455.082947,296.122681 458.972809,300.071289 458.981598,307.987549 
	C459.004059,328.182007 458.998718,348.376434 459.020233,368.570892 
	C459.021301,369.546631 459.172821,370.522217 459.288971,371.913635 
	C470.664429,371.913635 481.931885,371.913635 493.788422,371.913635 
	C493.788422,363.022278 493.765869,354.359985 493.793640,345.697876 
	C493.836182,332.441406 493.867889,319.184601 493.996918,305.928894 
	C494.053802,300.082214 497.730194,296.210724 503.485382,295.910706 
	C507.075806,295.723511 510.686188,295.757782 514.281982,295.871246 
	C521.332458,296.093689 525.105530,299.573883 525.170959,306.475281 
	C525.326050,322.851257 525.195312,339.229767 525.239075,355.607056 
	C525.303833,379.873718 525.419556,404.140228 525.743652,428.737549 
	C525.791016,440.206818 525.425293,451.346222 525.481201,462.483551 
	C525.529663,472.146057 521.224670,477.030243 511.594421,477.113525 
	C508.647430,477.139038 505.631622,476.798309 502.758881,476.139130 
	C497.641754,474.964996 494.245911,470.716431 493.961609,465.490753 
	C493.799744,462.515442 493.877991,459.527008 493.894531,455.617584 
	C493.940948,439.454285 493.940948,424.217865 493.940948,408.357788 
	C483.333282,408.357788 473.322418,408.574677 463.329407,408.247772 
	C459.496277,408.122345 458.935028,409.546844 458.958038,412.826599 
	C459.069000,428.631500 458.850464,444.439362 459.043335,460.242615 
	C459.106567,465.423920 457.841034,469.660156 453.655853,472.841309 
	C452.630463,473.531555 451.605072,474.221802 450.289368,475.039246 
z"/>
<path fill="#010100" opacity="1.000000" stroke="none" 
	d="
M327.871155,467.935303 
	C327.709900,456.980408 327.693909,446.413422 327.509186,435.849426 
	C327.344208,426.415558 333.443726,419.253693 342.032318,419.045166 
	C351.576050,418.813416 358.771362,425.836304 358.894653,435.510223 
	C358.911407,436.823364 358.896973,438.136902 358.896973,439.347198 
	C365.748413,441.620453 374.739594,439.398895 378.945251,434.570007 
	C385.679230,426.838165 383.610046,416.059174 373.670685,409.530273 
	C366.879089,405.069061 359.628601,401.310394 352.624146,397.168427 
	C337.576904,388.270508 325.873291,376.393585 323.558472,358.410431 
	C319.710388,328.516052 333.734924,301.362305 367.646973,296.227722 
	C377.582550,294.723358 387.997101,295.597473 398.119598,296.353180 
	C406.701019,296.993866 409.976013,301.370850 409.998505,309.491333 
	C410.023071,318.361725 409.720551,327.256195 410.274567,336.095428 
	C410.833710,345.017273 401.984924,349.629517 395.725281,349.853546 
	C387.156982,350.160156 380.256470,344.203125 380.016052,336.540192 
	C379.841492,330.976105 378.683960,329.773438 373.101715,330.113098 
	C366.809540,330.496033 361.978607,333.634277 359.267151,339.240570 
	C356.315521,345.343475 356.271057,352.228210 360.917938,357.003052 
	C366.589233,362.830536 373.367950,367.827209 380.336182,372.090576 
	C392.286957,379.402435 404.375336,386.162018 411.183868,399.342529 
	C427.385193,430.706360 410.085571,467.134979 375.457184,473.644592 
	C368.196075,475.009552 360.664459,474.935638 352.972717,475.702820 
	C347.777649,475.836975 342.866638,475.719147 337.957336,475.769287 
	C332.677582,475.823181 329.246796,473.543121 327.871155,467.935303 
z"/>
<path fill="#000001" opacity="1.000000" stroke="none" 
	d="
M655.390381,68.311150 
	C651.108582,84.122284 643.672913,97.970314 634.351990,110.754684 
	C624.167664,124.723129 612.249207,136.929413 596.157593,144.255539 
	C587.024292,148.413712 577.724182,151.802536 567.388367,150.313278 
	C555.389099,148.584274 547.625366,139.850632 546.992188,127.672546 
	C546.161621,111.699509 553.787537,99.344856 563.648987,87.900887 
	C584.221008,64.027565 611.103333,51.356380 641.147644,44.324684 
	C641.949768,44.136929 642.799988,44.156647 643.627197,44.073570 
	C652.477295,43.184830 659.301025,44.495411 657.022644,59.086285 
	C656.561768,62.037552 656.037537,64.978912 655.390381,68.311150 
z"/>
<path fill="#000001" opacity="1.000000" stroke="none" 
	d="
M246.961456,112.193550 
	C247.849350,118.297997 249.902786,124.151314 249.257156,129.690002 
	C247.444046,145.244049 235.780365,152.994766 219.506195,150.566315 
	C209.468567,149.068497 200.576035,145.032883 192.330200,139.116013 
	C172.756760,125.070946 157.285339,107.481674 147.461899,85.524544 
	C143.388626,76.420059 140.937057,66.397667 139.098740,56.540802 
	C137.327560,47.043938 142.697723,42.486813 152.199036,43.951019 
	C155.632080,44.480068 159.083984,45.064083 162.423294,45.995766 
	C188.806198,53.356716 212.216995,65.881699 231.107941,86.072281 
	C238.106506,93.552330 243.475174,102.092690 246.961456,112.193550 
z"/>
<path fill="#010102" opacity="1.000000" stroke="none" 
	d="
M543.138000,411.105286 
	C543.300232,403.055847 543.785706,395.325714 543.766296,387.596863 
	C543.699524,361.020508 543.444641,334.444641 543.287109,307.868469 
	C543.241028,300.084930 547.011230,296.178131 554.706970,295.979248 
	C557.364319,295.910583 560.025024,295.974335 562.684204,295.971466 
	C571.267151,295.962189 574.920044,299.571381 575.058228,308.362213 
	C575.180298,316.130981 575.192688,323.901520 575.624878,331.915131 
	C575.696472,376.932251 575.334656,421.705292 575.169678,466.479034 
	C575.147217,472.572021 574.291931,478.188354 568.114197,480.485535 
	C561.520996,482.937134 554.558167,482.705078 548.444458,478.705597 
	C544.163757,475.905304 543.398132,471.198181 543.387329,466.382965 
	C543.346436,448.063660 543.284119,429.744446 543.138000,411.105286 
z"/>
<path fill="#F9B20E" opacity="1.000000" stroke="none" 
	d="
M560.862549,214.836945 
	C546.186584,212.470093 538.705078,218.766190 539.075989,233.521042 
	C539.101013,234.518127 539.119812,235.515778 539.117676,236.513107 
	C539.104980,242.303238 536.902283,245.477722 532.550110,245.991776 
	C527.309998,246.610703 522.880371,243.398697 521.997864,237.848251 
	C521.405090,234.120422 521.266663,230.289963 521.259338,226.504761 
	C521.228638,210.748398 515.153992,198.292908 501.610565,189.795166 
	C501.063965,189.452179 500.613098,188.956619 499.542755,188.039719 
	C511.407745,184.903168 520.245300,178.322784 526.624084,168.001831 
	C534.242676,176.785507 541.912842,185.559998 548.852051,194.878738 
	C553.410339,201.000076 556.913452,207.907150 560.862549,214.836945 
z"/>
<path fill="#FAB20D" opacity="1.000000" stroke="none" 
	d="
M454.087769,472.919556 
	C457.841034,469.660156 459.106567,465.423920 459.043335,460.242615 
	C458.850464,444.439362 459.069000,428.631500 458.958038,412.826599 
	C458.935028,409.546844 459.496277,408.122345 463.329407,408.247772 
	C473.322418,408.574677 483.333282,408.357788 493.940948,408.357788 
	C493.940948,424.217865 493.940948,439.454285 493.889557,455.126709 
	C482.752472,460.895782 471.692383,466.283417 460.555695,471.507751 
	C458.715607,472.370941 456.540131,472.519165 454.087769,472.919556 
z"/>
<path fill="#000002" opacity="1.000000" stroke="none" 
	d="
M115.416771,208.643311 
	C108.560501,205.448257 102.993851,201.705795 101.578598,193.810410 
	C99.207138,180.580490 110.433868,169.395721 122.993240,173.618027 
	C132.344452,176.761826 141.291412,181.341919 150.017914,186.028137 
	C155.861740,189.166306 158.543839,195.091522 157.652863,201.677094 
	C156.668076,208.956116 153.129959,215.242401 145.557373,217.237579 
	C141.999695,218.174927 137.625000,217.640320 134.038773,216.480072 
	C127.772285,214.452652 121.828873,211.426666 115.416771,208.643311 
z"/>
<path fill="#000002" opacity="1.000000" stroke="none" 
	d="
M646.228821,186.190308 
	C656.577087,181.749115 666.398071,176.837006 676.722595,173.467545 
	C685.485107,170.607849 693.702148,178.033279 694.865784,188.447021 
	C695.770081,196.540359 692.596619,202.766174 685.197937,206.361893 
	C678.058716,209.831512 670.795166,213.068130 663.464661,216.114609 
	C656.761108,218.900543 648.179932,217.360672 644.118896,212.638229 
	C639.186646,206.902649 636.571167,200.358643 640.180115,192.996475 
	C641.421387,190.464325 643.969055,188.572571 646.228821,186.190308 
z"/>
<path fill="#FBB20D" opacity="1.000000" stroke="none" 
	d="
M356.799469,118.143494 
	C356.732971,120.818520 356.566956,123.496422 355.912079,126.048882 
	C353.021790,137.313583 350.028046,148.552231 347.000488,159.781082 
	C343.752197,171.828537 340.424194,183.854492 336.826721,197.001770 
	C333.702484,185.174347 330.831299,174.367645 327.995605,163.551636 
	C325.311584,153.314026 322.664795,143.066635 319.960754,132.451599 
	C329.914825,128.120499 339.900391,124.137238 349.912292,120.221359 
	C352.050751,119.384972 354.284882,118.793144 356.799469,118.143494 
z"/>
<path fill="#E9A718" opacity="1.000000" stroke="none" 
	d="
M255.611755,411.501648 
	C255.169006,408.271027 255.008743,405.319702 254.848480,402.368408 
	C255.235275,402.243713 255.622086,402.119049 256.008881,401.994354 
	C257.663849,406.717621 259.318848,411.440857 260.937897,416.542633 
	C259.232727,415.207764 257.563507,413.494354 255.611755,411.501648 
z"/>
<path fill="#FAB20D" opacity="1.000000" stroke="none" 
	d="
M499.936707,145.399353 
	C499.770813,151.893875 493.481842,159.331589 484.510101,159.946686 
	C476.514709,160.494827 468.452026,160.061844 459.964508,160.061844 
	C459.964508,148.305923 459.964508,137.063110 460.424835,125.410255 
	C462.884888,125.681831 465.031860,126.093216 466.860229,127.089363 
	C477.926117,133.118515 488.919250,139.281265 499.936707,145.399353 
z"/>
</svg>